<svg xmlns="http://www.w3.org/2000/svg" data-name="Layer 1" viewBox="0 0 100 125" x="0px" y="0px"><path d="M92.36,25.12,74.88,7.64A9,9,0,0,0,68.51,5H14a9,9,0,0,0-9,9V86a9,9,0,0,0,9,9H86a9,9,0,0,0,9-9V31.49A9,9,0,0,0,92.36,25.12ZM57,11V28a1,1,0,0,1-1,1H26a1,1,0,0,1-1-1V11ZM25,89V61a1,1,0,0,1,1-1H74a1,1,0,0,1,1,1V89Zm64-3a3,3,0,0,1-3,3H81V61a7,7,0,0,0-7-7H26a7,7,0,0,0-7,7V89H14a3,3,0,0,1-3-3V14a3,3,0,0,1,3-3h5V28a7,7,0,0,0,7,7H56a7,7,0,0,0,7-7V11h5.51a3,3,0,0,1,2.13.88L88.12,29.36A3,3,0,0,1,89,31.49Z"/><path d="M35,70.67H65a2,2,0,0,0,0-4H35a2,2,0,0,0,0,4Z"/><path d="M35,82.33H65a2,2,0,0,0,0-4H35a2,2,0,0,0,0,4Z"/></svg>