<svg xmlns:dc="http://purl.org/dc/elements/1.1/" xmlns:cc="http://creativecommons.org/ns#" xmlns:rdf="http://www.w3.org/1999/02/22-rdf-syntax-ns#" xmlns:svg="http://www.w3.org/2000/svg" xmlns="http://www.w3.org/2000/svg" xmlns:sodipodi="http://sodipodi.sourceforge.net/DTD/sodipodi-0.dtd" xmlns:inkscape="http://www.inkscape.org/namespaces/inkscape" version="1.1" x="0px" y="0px" viewBox="0 0 100 125"><g transform="translate(0,-952.36218)"><path d="m 60.889362,960.68317 32.785582,31.88944 c 0.433417,0.42201 0.433417,1.20972 0,1.63173 l -32.785582,31.88946 c -0.634004,0.6037 -1.897015,0.062 -1.903677,-0.8158 l 0,-19.0841 c -9.037027,-0.6582 -19.762157,1.2633 -29.119251,6.8462 -9.708697,5.7926 -17.995783,15.4846 -21.6455308,30.4705 -0.1353543,0.5298 -0.6955866,0.9125 -1.234807,0.8436 -0.5392559,-0.069 -0.9866693,-0.5804 -0.9861023,-1.1273 0.081248,-21.4464 6.0801731,-36.9951 15.8638811,-47.42631 9.556193,-10.18852 22.670185,-15.42319 37.12181,-16.70739 l 0,-17.59418 c 0.0169,-1.13046 1.203449,-1.44847 1.903677,-0.81585 z m 0.352524,3.47627 0,15.78511 c -0.01127,0.94408 -0.460169,1.26138 -1.233815,1.31244 -14.368004,1.11799 -27.192295,6.19445 -36.487239,16.1044 -8.044972,8.57721 -13.511657,20.84341 -14.9121847,37.52951 4.4761887,-11.1101 11.8325897,-18.8513 20.1297037,-23.8018 10.105902,-6.0297 21.606484,-7.9751 31.26972,-7.0945 0.952689,0.1071 1.236508,0.6512 1.233815,1.3835 l 0,17.2395 30.000507,-29.22914 z" style="text-indent:0;text-transform:none;direction:ltr;block-progression:tb;baseline-shift:baseline;color:#000000;enable-background:accumulate;" fill="#000000" fill-opacity="1" fill-rule="evenodd" stroke="none" marker="none" visibility="visible" display="inline" overflow="visible"/></g></svg>