<svg xmlns="http://www.w3.org/2000/svg" xmlns:xlink="http://www.w3.org/1999/xlink" version="1.1" x="0px" y="0px" viewBox="0 0 56 70" enable-background="new 0 0 56 56" xml:space="preserve"><path d="M24.1396484,9.7939453c-0.3413086-0.1669922-0.7509766-0.125-1.0532227,0.1083984L3.3862305,25.2099609  C3.1425781,25.3994141,3,25.6914062,3,26s0.1425781,0.5996094,0.3862305,0.7890625l19.7001953,15.3173828  c0.3022461,0.2363281,0.7104492,0.2783203,1.0532227,0.109375c0.3432617-0.1679688,0.5605469-0.5166016,0.5605469-0.8984375  V34.265625c3.2919922-0.1953125,15.5561523-0.0419922,26.5698242,11.7255859  c0.1938477,0.2070312,0.4599609,0.3164062,0.7304688,0.3164062c0.1523438,0,0.3061523-0.0351562,0.4492188-0.1064453  c0.3964844-0.2001953,0.6137695-0.6367188,0.5341797-1.0732422c-4.1958008-22.9628906-23.6738281-26.2587891-28.2836914-26.7167969  v-7.71875C24.7001953,10.3105469,24.4829102,9.9619141,24.1396484,9.7939453z M35.6518555,23.6679688  c7.4018555,3.7724609,12.309082,9.9941406,14.6206055,18.5205078c-9.5932617-8.7998047-19.4682617-9.9794922-24.0742188-9.9794922  c-1.5449219,0-2.4975586,0.1328125-2.6469727,0.1552734c-0.4892578,0.0742188-0.8510742,0.4941406-0.8510742,0.9892578v5.9199219  L5.6293945,26l17.0708008-13.2646484v6.6035156c0,0.5439453,0.4345703,0.9882812,0.9785156,1  C23.7353516,20.3398438,29.434082,20.4980469,35.6518555,23.6679688z"/></svg>