<svg xmlns="http://www.w3.org/2000/svg" version="1.1" viewBox="0 0 64 80" x="0px" y="0px"><title>add</title><path d="M12 0c-2.067 0-3.75 1.683-3.75 3.75v49.050c0 2.068 1.683 3.75 3.75 3.75h26.279c0.635 4.211 4.289 7.45 8.688 7.45 0.032 0 0.066 0 0.1-0.001 4.79-0.052 8.684-3.977 8.684-8.756 0-4.36-3.243-8.010-7.45-8.655v-42.837c0-2.067-1.682-3.75-3.75-3.75zM12 2.5h32.55c0.689 0 1.25 0.561 1.25 1.25v42.814c-3.902 0.517-7.003 3.6-7.536 7.486h-26.264c-0.689 0-1.25-0.56-1.25-1.25v-49.050c0-0.689 0.561-1.25 1.25-1.25zM18.61 9.462c-2.067 0-3.75 1.682-3.75 3.75s1.683 3.75 3.75 3.75c2.068 0 3.75-1.682 3.75-3.75s-1.682-3.75-3.75-3.75zM26.049 11.962c-0.69 0-1.25 0.56-1.25 1.25s0.56 1.25 1.25 1.25h14.39c0.69 0 1.25-0.56 1.25-1.25s-0.56-1.25-1.25-1.25zM18.61 19.587c-2.067 0-3.75 1.682-3.75 3.75s1.683 3.75 3.75 3.75c2.068 0 3.75-1.682 3.75-3.75s-1.682-3.75-3.75-3.75zM26.049 22.087c-0.69 0-1.25 0.56-1.25 1.25s0.56 1.25 1.25 1.25h11.25c0.69 0 1.25-0.56 1.25-1.25s-0.559-1.25-1.25-1.25zM18.61 29.587c-2.067 0-3.75 1.682-3.75 3.75s1.683 3.75 3.75 3.75c2.068 0 3.75-1.682 3.75-3.75s-1.682-3.75-3.75-3.75zM26.049 32.087c-0.69 0-1.25 0.559-1.25 1.25s0.56 1.25 1.25 1.25h14.39c0.69 0 1.25-0.56 1.25-1.25s-0.56-1.25-1.25-1.25zM18.61 39.587c-2.067 0-3.75 1.682-3.75 3.75s1.683 3.75 3.75 3.75c2.068 0 3.75-1.682 3.75-3.75s-1.682-3.75-3.75-3.75zM26.049 42.087c-0.69 0-1.25 0.56-1.25 1.25s0.56 1.25 1.25 1.25h11.25c0.69 0 1.25-0.559 1.25-1.25s-0.559-1.25-1.25-1.25zM47.051 50.295c0.69 0 1.25 0.56 1.25 1.25v2.504h2.518c0.69 0 1.25 0.56 1.25 1.25s-0.56 1.25-1.25 1.25h-2.518v2.504c0 0.69-0.56 1.25-1.25 1.25s-1.25-0.56-1.25-1.25v-2.504h-2.517c-0.69 0-1.25-0.56-1.25-1.25s0.56-1.25 1.25-1.25h2.517v-2.504c0-0.69 0.56-1.25 1.25-1.25z"/></svg>